<mxfile host="65bd71144e">
    <diagram id="jlFQOuwXNklhMa_8XNmN" name="Page-1">
        <mxGraphModel dx="618" dy="419" grid="1" gridSize="10" guides="1" tooltips="1" connect="1" arrows="1" fold="1" page="1" pageScale="1" pageWidth="827" pageHeight="1169" math="0" shadow="0">
            <root>
                <mxCell id="0"/>
                <mxCell id="1" parent="0"/>
                <mxCell id="3" value="FormList.props" style="swimlane;whiteSpace=wrap;html=1;" vertex="1" parent="1">
                    <mxGeometry x="80" y="120" width="250" height="490" as="geometry"/>
                </mxCell>
                <mxCell id="4" value="&lt;div style=&quot;color: rgb(59, 59, 59); background-color: rgb(255, 255, 255); font-family: &amp;quot;Fira Code&amp;quot;, Menlo, Monaco, &amp;quot;Courier New&amp;quot;, monospace, Menlo, Monaco, &amp;quot;Courier New&amp;quot;, monospace; font-size: 12px; line-height: 18px;&quot;&gt;&lt;div&gt;&lt;span style=&quot;color: rgb(0, 16, 128);&quot;&gt;customFilterRender&lt;/span&gt;&lt;span style=&quot;color: rgb(0, 0, 0);&quot;&gt;?:&lt;/span&gt; &lt;span style=&quot;color: rgb(38, 127, 153);&quot;&gt;any&lt;/span&gt;;&lt;br&gt;&lt;/div&gt;&lt;div&gt;&lt;span style=&quot;color: #3b3b3b;&quot;&gt;  &lt;/span&gt;&lt;span style=&quot;color: #001080;&quot;&gt;customActionsRender&lt;/span&gt;&lt;span style=&quot;color: #000000;&quot;&gt;?:&lt;/span&gt;&lt;span style=&quot;color: #3b3b3b;&quot;&gt; &lt;/span&gt;&lt;span style=&quot;color: #267f99;&quot;&gt;any&lt;/span&gt;&lt;span style=&quot;color: #3b3b3b;&quot;&gt;;&lt;/span&gt;&lt;/div&gt;&lt;div&gt;&lt;span style=&quot;color: #3b3b3b;&quot;&gt;  &lt;/span&gt;&lt;span style=&quot;color: #001080;&quot;&gt;customActionBarRender&lt;/span&gt;&lt;span style=&quot;color: #000000;&quot;&gt;?:&lt;/span&gt;&lt;span style=&quot;color: #3b3b3b;&quot;&gt; &lt;/span&gt;&lt;span style=&quot;color: #267f99;&quot;&gt;any&lt;/span&gt;&lt;span style=&quot;color: #3b3b3b;&quot;&gt;;&lt;/span&gt;&lt;/div&gt;&lt;div&gt;&lt;span style=&quot;color: #3b3b3b;&quot;&gt;  &lt;/span&gt;&lt;span style=&quot;color: #001080;&quot;&gt;customTableRender&lt;/span&gt;&lt;span style=&quot;color: #000000;&quot;&gt;?:&lt;/span&gt;&lt;span style=&quot;color: #3b3b3b;&quot;&gt; &lt;/span&gt;&lt;span style=&quot;color: #267f99;&quot;&gt;any&lt;/span&gt;&lt;span style=&quot;color: #3b3b3b;&quot;&gt;;&lt;/span&gt;&lt;/div&gt;&lt;div&gt;&lt;span style=&quot;color: #3b3b3b;&quot;&gt;  &lt;/span&gt;&lt;span style=&quot;color: #001080;&quot;&gt;customPaginationRender&lt;/span&gt;&lt;span style=&quot;color: #000000;&quot;&gt;?:&lt;/span&gt;&lt;span style=&quot;color: #3b3b3b;&quot;&gt; &lt;/span&gt;&lt;span style=&quot;color: #267f99;&quot;&gt;any&lt;/span&gt;&lt;span style=&quot;color: #3b3b3b;&quot;&gt;;&lt;/span&gt;&lt;/div&gt;&lt;div&gt;&lt;span style=&quot;border-color: var(--border-color); color: rgb(0, 16, 128);&quot;&gt;&lt;br&gt;&lt;/span&gt;&lt;/div&gt;&lt;div&gt;&lt;span style=&quot;border-color: var(--border-color); color: rgb(0, 16, 128);&quot;&gt;styles&lt;/span&gt;&lt;span style=&quot;border-color: var(--border-color); color: rgb(0, 0, 0);&quot;&gt;?:&lt;/span&gt;&lt;span style=&quot;border-color: var(--border-color);&quot;&gt;&amp;nbsp;&lt;/span&gt;&lt;span style=&quot;border-color: var(--border-color); color: rgb(38, 127, 153);&quot;&gt;ListStyles&lt;/span&gt;&lt;span style=&quot;border-color: var(--border-color);&quot;&gt;;&lt;/span&gt;&lt;/div&gt;&lt;div style=&quot;border-color: var(--border-color);&quot;&gt;&lt;span style=&quot;border-color: var(--border-color);&quot;&gt;&lt;/span&gt;&lt;span style=&quot;border-color: var(--border-color); color: rgb(0, 16, 128);&quot;&gt;fetchData&lt;/span&gt;&lt;span style=&quot;border-color: var(--border-color); color: rgb(0, 0, 0);&quot;&gt;:&lt;/span&gt;&lt;span style=&quot;border-color: var(--border-color);&quot;&gt;&amp;nbsp;&lt;/span&gt;&lt;span style=&quot;border-color: var(--border-color); color: rgb(38, 127, 153);&quot;&gt;any&lt;/span&gt;&lt;span style=&quot;border-color: var(--border-color);&quot;&gt;;&lt;/span&gt;&lt;/div&gt;&lt;div style=&quot;border-color: var(--border-color);&quot;&gt;&lt;span style=&quot;border-color: var(--border-color);&quot;&gt;&lt;/span&gt;&lt;span style=&quot;border-color: var(--border-color); color: rgb(0, 16, 128);&quot;&gt;fetchSchema&lt;/span&gt;&lt;span style=&quot;border-color: var(--border-color); color: rgb(0, 0, 0);&quot;&gt;?:&lt;/span&gt;&lt;span style=&quot;border-color: var(--border-color);&quot;&gt;&amp;nbsp;&lt;/span&gt;&lt;span style=&quot;border-color: var(--border-color); color: rgb(38, 127, 153);&quot;&gt;any&lt;/span&gt;&lt;span style=&quot;border-color: var(--border-color);&quot;&gt;;&lt;/span&gt;&lt;/div&gt;&lt;br style=&quot;border-color: var(--border-color);&quot;&gt;&lt;div style=&quot;border-color: var(--border-color);&quot;&gt;&lt;span style=&quot;border-color: var(--border-color);&quot;&gt;&lt;/span&gt;&lt;span style=&quot;border-color: var(--border-color); color: rgb(0, 16, 128);&quot;&gt;filterFormProps&lt;/span&gt;&lt;span style=&quot;border-color: var(--border-color); color: rgb(0, 0, 0);&quot;&gt;?:&lt;/span&gt;&lt;span style=&quot;border-color: var(--border-color);&quot;&gt;&amp;nbsp;&lt;/span&gt;&lt;span style=&quot;border-color: var(--border-color); color: rgb(38, 127, 153);&quot;&gt;FormProps&lt;/span&gt;&lt;span style=&quot;border-color: var(--border-color);&quot;&gt;;&lt;/span&gt;&lt;/div&gt;&lt;div style=&quot;border-color: var(--border-color);&quot;&gt;&lt;span style=&quot;border-color: var(--border-color);&quot;&gt;&lt;/span&gt;&lt;span style=&quot;border-color: var(--border-color); color: rgb(0, 16, 128);&quot;&gt;actionBarProps&lt;/span&gt;&lt;span style=&quot;border-color: var(--border-color); color: rgb(0, 0, 0);&quot;&gt;?:&lt;/span&gt;&lt;span style=&quot;border-color: var(--border-color);&quot;&gt;&amp;nbsp;&lt;/span&gt;&lt;span style=&quot;border-color: var(--border-color); color: rgb(38, 127, 153);&quot;&gt;any&lt;/span&gt;&lt;span style=&quot;border-color: var(--border-color);&quot;&gt;;&lt;/span&gt;&lt;/div&gt;&lt;div style=&quot;border-color: var(--border-color);&quot;&gt;&lt;span style=&quot;border-color: var(--border-color);&quot;&gt;&lt;/span&gt;&lt;span style=&quot;border-color: var(--border-color); color: rgb(0, 16, 128);&quot;&gt;paginationProps&lt;/span&gt;&lt;span style=&quot;border-color: var(--border-color); color: rgb(0, 0, 0);&quot;&gt;?:&lt;/span&gt;&lt;span style=&quot;border-color: var(--border-color);&quot;&gt;&amp;nbsp;&lt;/span&gt;&lt;span style=&quot;border-color: var(--border-color); color: rgb(38, 127, 153);&quot;&gt;any&lt;/span&gt;&lt;span style=&quot;border-color: var(--border-color);&quot;&gt;;&lt;/span&gt;&lt;/div&gt;&lt;div style=&quot;border-color: var(--border-color);&quot;&gt;&lt;span style=&quot;border-color: var(--border-color);&quot;&gt;&lt;/span&gt;&lt;span style=&quot;border-color: var(--border-color); color: rgb(0, 16, 128);&quot;&gt;filterCompsMap&lt;/span&gt;&lt;span style=&quot;border-color: var(--border-color); color: rgb(0, 0, 0);&quot;&gt;?:&lt;/span&gt;&lt;span style=&quot;border-color: var(--border-color);&quot;&gt;&amp;nbsp;&lt;/span&gt;&lt;span style=&quot;border-color: var(--border-color); color: rgb(38, 127, 153);&quot;&gt;any&lt;/span&gt;&lt;span style=&quot;border-color: var(--border-color);&quot;&gt;;&lt;/span&gt;&lt;/div&gt;&lt;div style=&quot;border-color: var(--border-color);&quot;&gt;&lt;span style=&quot;border-color: var(--border-color);&quot;&gt;&lt;/span&gt;&lt;span style=&quot;border-color: var(--border-color); color: rgb(0, 16, 128);&quot;&gt;tableActionsMap&lt;/span&gt;&lt;span style=&quot;border-color: var(--border-color); color: rgb(0, 0, 0);&quot;&gt;?:&lt;/span&gt;&lt;span style=&quot;border-color: var(--border-color);&quot;&gt;&amp;nbsp;&lt;/span&gt;&lt;span style=&quot;border-color: var(--border-color); color: rgb(38, 127, 153);&quot;&gt;any&lt;/span&gt;&lt;span style=&quot;border-color: var(--border-color);&quot;&gt;;&lt;/span&gt;&lt;/div&gt;&lt;div style=&quot;border-color: var(--border-color);&quot;&gt;&lt;span style=&quot;border-color: var(--border-color);&quot;&gt;&lt;/span&gt;&lt;/div&gt;&lt;div&gt;&lt;span style=&quot;border-color: var(--border-color); color: rgb(0, 16, 128);&quot;&gt;tableColumnsMap&lt;/span&gt;&lt;span style=&quot;border-color: var(--border-color); color: rgb(0, 0, 0);&quot;&gt;?:&lt;/span&gt;&lt;span style=&quot;border-color: var(--border-color);&quot;&gt;&amp;nbsp;&lt;/span&gt;&lt;span style=&quot;border-color: var(--border-color); color: rgb(38, 127, 153);&quot;&gt;any&lt;/span&gt;&lt;span style=&quot;border-color: var(--border-color);&quot;&gt;;&lt;/span&gt;&lt;/div&gt;&lt;div&gt;&lt;span style=&quot;color: #001080;&quot;&gt;&lt;br&gt;&lt;/span&gt;&lt;/div&gt;&lt;div&gt;&lt;span style=&quot;color: #001080;&quot;&gt;hasPagination&lt;/span&gt;&lt;span style=&quot;color: #000000;&quot;&gt;?:&lt;/span&gt;&lt;span style=&quot;color: #3b3b3b;&quot;&gt; &lt;/span&gt;&lt;span style=&quot;color: #267f99;&quot;&gt;boolean&lt;/span&gt;&lt;span style=&quot;color: #3b3b3b;&quot;&gt;;&lt;/span&gt;&lt;/div&gt;&lt;div&gt;&lt;span style=&quot;color: #3b3b3b;&quot;&gt;  &lt;/span&gt;&lt;/div&gt;&lt;div&gt;&lt;span style=&quot;color: #3b3b3b;&quot;&gt;  &lt;/span&gt;&lt;span style=&quot;color: #001080;&quot;&gt;schema&lt;/span&gt;&lt;span style=&quot;color: #000000;&quot;&gt;:&lt;/span&gt;&lt;span style=&quot;color: #267f99;&quot;&gt;any&lt;/span&gt;&lt;span style=&quot;color: #3b3b3b;&quot;&gt;,&lt;/span&gt;&lt;/div&gt;&lt;div&gt;&lt;span style=&quot;color: #3b3b3b;&quot;&gt;  &lt;/span&gt;&lt;span style=&quot;color: #001080;&quot;&gt;refreshDeps&lt;/span&gt;&lt;span style=&quot;color: #000000;&quot;&gt;:&lt;/span&gt;&lt;span style=&quot;color: #3b3b3b;&quot;&gt; &lt;/span&gt;&lt;span style=&quot;color: #267f99;&quot;&gt;any&lt;/span&gt;&lt;span style=&quot;color: #3b3b3b;&quot;&gt;, &lt;/span&gt;&lt;span style=&quot;color: #008000;&quot;&gt;//???&lt;/span&gt;&lt;/div&gt;&lt;div&gt;&lt;span style=&quot;color: #3b3b3b;&quot;&gt;  &lt;/span&gt;&lt;span style=&quot;color: #795e26;&quot;&gt;tableShuttle&lt;/span&gt;&lt;span style=&quot;color: #000000;&quot;&gt;:&lt;/span&gt;&lt;span style=&quot;color: #3b3b3b;&quot;&gt; () &lt;/span&gt;&lt;span style=&quot;color: #0000ff;&quot;&gt;=&amp;gt;&lt;/span&gt;&lt;span style=&quot;color: #3b3b3b;&quot;&gt; {},&lt;/span&gt;&lt;/div&gt;&lt;div&gt;&lt;span style=&quot;color: #3b3b3b;&quot;&gt;  &lt;/span&gt;&lt;span style=&quot;color: #795e26;&quot;&gt;filterShuttle&lt;/span&gt;&lt;span style=&quot;color: #000000;&quot;&gt;:&lt;/span&gt;&lt;span style=&quot;color: #3b3b3b;&quot;&gt; () &lt;/span&gt;&lt;span style=&quot;color: #0000ff;&quot;&gt;=&amp;gt;&lt;/span&gt;&lt;span style=&quot;color: #3b3b3b;&quot;&gt; {},&lt;/span&gt;&lt;/div&gt;&lt;div&gt;&lt;span style=&quot;color: #3b3b3b;&quot;&gt;  &lt;/span&gt;&lt;span style=&quot;color: #001080;&quot;&gt;defaultParams&lt;/span&gt;&lt;span style=&quot;color: #000000;&quot;&gt;:&lt;/span&gt;&lt;span style=&quot;color: #3b3b3b;&quot;&gt; [],&lt;/span&gt;&lt;/div&gt;&lt;div&gt;&lt;span style=&quot;color: #3b3b3b;&quot;&gt;  &lt;/span&gt;&lt;/div&gt;&lt;div&gt;&lt;span style=&quot;color: #3b3b3b;&quot;&gt;  [&lt;/span&gt;&lt;span style=&quot;color: #001080;&quot;&gt;propName&lt;/span&gt;&lt;span style=&quot;color: #000000;&quot;&gt;:&lt;/span&gt;&lt;span style=&quot;color: #3b3b3b;&quot;&gt; &lt;/span&gt;&lt;span style=&quot;color: #267f99;&quot;&gt;string&lt;/span&gt;&lt;span style=&quot;color: #3b3b3b;&quot;&gt;]&lt;/span&gt;&lt;span style=&quot;color: #000000;&quot;&gt;:&lt;/span&gt;&lt;span style=&quot;color: #3b3b3b;&quot;&gt; &lt;/span&gt;&lt;span style=&quot;color: #267f99;&quot;&gt;any&lt;/span&gt;&lt;span style=&quot;color: #3b3b3b;&quot;&gt;;&lt;/span&gt;&lt;/div&gt;&lt;/div&gt;" style="rounded=0;whiteSpace=wrap;html=1;fontStyle=1" vertex="1" parent="3">
                    <mxGeometry x="20" y="30" width="220" height="450" as="geometry"/>
                </mxCell>
                <mxCell id="7" value="&lt;div style=&quot;color: rgb(59, 59, 59); background-color: rgb(255, 255, 255); font-family: &amp;quot;Fira Code&amp;quot;, Menlo, Monaco, &amp;quot;Courier New&amp;quot;, monospace, Menlo, Monaco, &amp;quot;Courier New&amp;quot;, monospace; font-weight: normal; line-height: 18px;&quot;&gt;&lt;span style=&quot;color: #0070c1;&quot;&gt;filterPropsData&lt;/span&gt;&lt;/div&gt;" style="swimlane;whiteSpace=wrap;html=1;align=center;" vertex="1" parent="1">
                    <mxGeometry x="380" y="120" width="256" height="290" as="geometry"/>
                </mxCell>
                <mxCell id="8" value="&lt;div style=&quot;color: rgb(59, 59, 59); background-color: rgb(255, 255, 255); font-family: &amp;quot;Fira Code&amp;quot;, Menlo, Monaco, &amp;quot;Courier New&amp;quot;, monospace, Menlo, Monaco, &amp;quot;Courier New&amp;quot;, monospace; font-weight: normal; font-size: 12px; line-height: 18px;&quot;&gt;&lt;div&gt;&lt;span style=&quot;color: #3b3b3b;&quot;&gt; &lt;/span&gt;&lt;span style=&quot;color: #001080;&quot;&gt;styles&lt;/span&gt;&lt;span style=&quot;color: #001080;&quot;&gt;:&lt;/span&gt;&lt;span style=&quot;color: #3b3b3b;&quot;&gt; {}&lt;/span&gt;&lt;/div&gt;&lt;div&gt;&lt;span style=&quot;color: #3b3b3b;&quot;&gt;    &lt;/span&gt;&lt;span style=&quot;color: #001080;&quot;&gt;form&lt;/span&gt;&lt;span style=&quot;color: #3b3b3b;&quot;&gt;,&lt;/span&gt;&lt;/div&gt;&lt;div&gt;&lt;span style=&quot;color: #3b3b3b;&quot;&gt;    &lt;/span&gt;&lt;span style=&quot;color: #001080;&quot;&gt;loading&lt;/span&gt;&lt;span style=&quot;color: #3b3b3b;&quot;&gt;,&lt;/span&gt;&lt;/div&gt;&lt;div&gt;&lt;span style=&quot;color: #3b3b3b;&quot;&gt;    &lt;/span&gt;&lt;span style=&quot;color: #795e26;&quot;&gt;submit&lt;/span&gt;&lt;span style=&quot;color: #3b3b3b;&quot;&gt;,&lt;/span&gt;&lt;/div&gt;&lt;div&gt;&lt;span style=&quot;color: #3b3b3b;&quot;&gt;    &lt;/span&gt;&lt;span style=&quot;color: #001080;&quot;&gt;search&lt;/span&gt;&lt;span style=&quot;color: #3b3b3b;&quot;&gt;,&lt;/span&gt;&lt;/div&gt;&lt;div&gt;&lt;span style=&quot;color: #3b3b3b;&quot;&gt;    &lt;/span&gt;&lt;span style=&quot;color: #001080;&quot;&gt;tableProps&lt;/span&gt;&lt;span style=&quot;color: #3b3b3b;&quot;&gt;,&lt;/span&gt;&lt;/div&gt;&lt;div&gt;&lt;span style=&quot;color: #3b3b3b;&quot;&gt;    &lt;/span&gt;&lt;span style=&quot;color: #795e26;&quot;&gt;refreshAsync&lt;/span&gt;&lt;span style=&quot;color: #3b3b3b;&quot;&gt;,&lt;/span&gt;&lt;/div&gt;&lt;div&gt;&lt;span style=&quot;color: #3b3b3b;&quot;&gt;    &lt;/span&gt;&lt;span style=&quot;color: #795e26;&quot;&gt;refresh&lt;/span&gt;&lt;span style=&quot;color: #3b3b3b;&quot;&gt;,&lt;/span&gt;&lt;/div&gt;&lt;div&gt;&lt;span style=&quot;color: #3b3b3b;&quot;&gt;    &lt;/span&gt;&lt;span style=&quot;color: #795e26;&quot;&gt;reset&lt;/span&gt;&lt;span style=&quot;color: #3b3b3b;&quot;&gt;,&lt;/span&gt;&lt;/div&gt;&lt;div&gt;&lt;span style=&quot;color: #3b3b3b;&quot;&gt;    &lt;/span&gt;&lt;span style=&quot;color: #001080;&quot;&gt;schema&lt;/span&gt;&lt;span style=&quot;color: #001080;&quot;&gt;:&lt;/span&gt;&lt;span style=&quot;color: #3b3b3b;&quot;&gt; &lt;/span&gt;&lt;span style=&quot;color: #0070c1;&quot;&gt;filterSchema&lt;/span&gt;&lt;span style=&quot;color: #3b3b3b;&quot;&gt;,&lt;/span&gt;&lt;/div&gt;&lt;div&gt;&lt;span style=&quot;color: #3b3b3b;&quot;&gt;    &lt;/span&gt;&lt;span style=&quot;color: #001080;&quot;&gt;CompsMap&lt;/span&gt;&lt;span style=&quot;color: #001080;&quot;&gt;:&lt;/span&gt;&lt;span style=&quot;color: #3b3b3b;&quot;&gt; &lt;/span&gt;&lt;span style=&quot;color: #0070c1;&quot;&gt;FilterCompsMap&lt;/span&gt;&lt;span style=&quot;color: #3b3b3b;&quot;&gt;,&lt;/span&gt;&lt;/div&gt;&lt;div&gt;&lt;span style=&quot;color: #3b3b3b;&quot;&gt;    &lt;/span&gt;&lt;span style=&quot;color: #001080;&quot;&gt;formProps&lt;/span&gt;&lt;span style=&quot;color: #001080;&quot;&gt;:&lt;/span&gt;&lt;span style=&quot;color: #3b3b3b;&quot;&gt; &lt;/span&gt;&lt;span style=&quot;color: #0070c1;&quot;&gt;FilterFormProps&lt;/span&gt;&lt;span style=&quot;color: #3b3b3b;&quot;&gt;,&lt;/span&gt;&lt;/div&gt;&lt;div&gt;&lt;span style=&quot;color: #3b3b3b;&quot;&gt;    &lt;/span&gt;&lt;span style=&quot;color: #001080;&quot;&gt;shuttle&lt;/span&gt;&lt;span style=&quot;color: #001080;&quot;&gt;:&lt;/span&gt;&lt;span style=&quot;color: #3b3b3b;&quot;&gt; &lt;/span&gt;&lt;span style=&quot;color: #0070c1;&quot;&gt;filterShuttle&lt;/span&gt;&lt;span style=&quot;color: #3b3b3b;&quot;&gt;,&lt;/span&gt;&lt;/div&gt;&lt;/div&gt;" style="rounded=0;whiteSpace=wrap;html=1;align=left;" vertex="1" parent="7">
                    <mxGeometry x="8" y="32" width="240" height="248" as="geometry"/>
                </mxCell>
                <mxCell id="9" value="" style="endArrow=classic;html=1;exitX=1;exitY=0.25;exitDx=0;exitDy=0;" edge="1" parent="1" source="4">
                    <mxGeometry width="50" height="50" relative="1" as="geometry">
                        <mxPoint x="330" y="210" as="sourcePoint"/>
                        <mxPoint x="380" y="170" as="targetPoint"/>
                    </mxGeometry>
                </mxCell>
                <mxCell id="13" value="&lt;div style=&quot;color: rgb(59, 59, 59); background-color: rgb(255, 255, 255); font-family: &amp;quot;Fira Code&amp;quot;, Menlo, Monaco, &amp;quot;Courier New&amp;quot;, monospace, Menlo, Monaco, &amp;quot;Courier New&amp;quot;, monospace; font-weight: normal; font-size: 12px; line-height: 18px;&quot;&gt;ListStyle&lt;/div&gt;" style="swimlane;whiteSpace=wrap;html=1;startSize=23;" vertex="1" parent="1">
                    <mxGeometry x="70" y="650" width="270" height="170" as="geometry">
                        <mxRectangle x="70" y="650" width="110" height="30" as="alternateBounds"/>
                    </mxGeometry>
                </mxCell>
                <mxCell id="15" style="edgeStyle=none;html=1;" edge="1" parent="13">
                    <mxGeometry relative="1" as="geometry">
                        <mxPoint x="260" y="241.42857142857133" as="sourcePoint"/>
                        <mxPoint x="260" y="258.57142857142867" as="targetPoint"/>
                    </mxGeometry>
                </mxCell>
                <mxCell id="16" value="&lt;div style=&quot;color: rgb(59, 59, 59); background-color: rgb(255, 255, 255); font-family: &amp;quot;Fira Code&amp;quot;, Menlo, Monaco, &amp;quot;Courier New&amp;quot;, monospace, Menlo, Monaco, &amp;quot;Courier New&amp;quot;, monospace; font-weight: normal; font-size: 12px; line-height: 18px;&quot;&gt;&lt;div&gt;&lt;span style=&quot;color: #3b3b3b;&quot;&gt; &lt;/span&gt;&lt;span style=&quot;color: #001080;&quot;&gt;filterWrapperStyles&lt;/span&gt;&lt;span style=&quot;color: #000000;&quot;&gt;?:&lt;/span&gt;&lt;span style=&quot;color: #3b3b3b;&quot;&gt; &lt;/span&gt;&lt;span style=&quot;color: #267f99;&quot;&gt;any&lt;/span&gt;&lt;span style=&quot;color: #3b3b3b;&quot;&gt;;&lt;/span&gt;&lt;/div&gt;&lt;div&gt;&lt;span style=&quot;color: #3b3b3b;&quot;&gt;  &lt;/span&gt;&lt;span style=&quot;color: #001080;&quot;&gt;filterFormStyles&lt;/span&gt;&lt;span style=&quot;color: #000000;&quot;&gt;?:&lt;/span&gt;&lt;span style=&quot;color: #3b3b3b;&quot;&gt; &lt;/span&gt;&lt;span style=&quot;color: #267f99;&quot;&gt;any&lt;/span&gt;&lt;span style=&quot;color: #3b3b3b;&quot;&gt;;&lt;/span&gt;&lt;/div&gt;&lt;div&gt;&lt;span style=&quot;color: #3b3b3b;&quot;&gt;  &lt;/span&gt;&lt;span style=&quot;color: #001080;&quot;&gt;tableWrapperStyles&lt;/span&gt;&lt;span style=&quot;color: #000000;&quot;&gt;?:&lt;/span&gt;&lt;span style=&quot;color: #3b3b3b;&quot;&gt; &lt;/span&gt;&lt;span style=&quot;color: #267f99;&quot;&gt;any&lt;/span&gt;&lt;span style=&quot;color: #3b3b3b;&quot;&gt;;&lt;/span&gt;&lt;/div&gt;&lt;div&gt;&lt;span style=&quot;color: #3b3b3b;&quot;&gt;  &lt;/span&gt;&lt;span style=&quot;color: #001080;&quot;&gt;paginationWrapperStyles&lt;/span&gt;&lt;span style=&quot;color: #000000;&quot;&gt;?:&lt;/span&gt;&lt;span style=&quot;color: #3b3b3b;&quot;&gt; &lt;/span&gt;&lt;span style=&quot;color: #267f99;&quot;&gt;any&lt;/span&gt;&lt;span style=&quot;color: #3b3b3b;&quot;&gt;;&lt;/span&gt;&lt;/div&gt;&lt;div&gt;&lt;div style=&quot;line-height: 18px;&quot;&gt; &lt;span style=&quot;color: #0070c1;&quot;&gt;filterFormItemLayout:any&lt;/span&gt;&lt;/div&gt;&lt;/div&gt;&lt;/div&gt;" style="rounded=0;whiteSpace=wrap;html=1;" vertex="1" parent="13">
                    <mxGeometry x="20" y="30" width="220" height="120" as="geometry"/>
                </mxCell>
                <mxCell id="17" value="&lt;div style=&quot;color: rgb(59, 59, 59); background-color: rgb(255, 255, 255); font-family: &amp;quot;Fira Code&amp;quot;, Menlo, Monaco, &amp;quot;Courier New&amp;quot;, monospace, Menlo, Monaco, &amp;quot;Courier New&amp;quot;, monospace; font-weight: normal; font-size: 12px; line-height: 18px;&quot;&gt;filterPropsData.style&lt;/div&gt;" style="swimlane;whiteSpace=wrap;html=1;startSize=23;" vertex="1" parent="1">
                    <mxGeometry x="680" y="120" width="300" height="110" as="geometry">
                        <mxRectangle x="70" y="650" width="110" height="30" as="alternateBounds"/>
                    </mxGeometry>
                </mxCell>
                <mxCell id="18" style="edgeStyle=none;html=1;" edge="1" parent="17">
                    <mxGeometry relative="1" as="geometry">
                        <mxPoint x="260" y="241.42857142857133" as="sourcePoint"/>
                        <mxPoint x="260" y="258.57142857142867" as="targetPoint"/>
                    </mxGeometry>
                </mxCell>
                <mxCell id="20" value="&lt;div style=&quot;color: rgb(59, 59, 59); background-color: rgb(255, 255, 255); font-family: &amp;quot;Fira Code&amp;quot;, Menlo, Monaco, &amp;quot;Courier New&amp;quot;, monospace, Menlo, Monaco, &amp;quot;Courier New&amp;quot;, monospace; font-weight: normal; font-size: 12px; line-height: 18px;&quot;&gt;&lt;div&gt;&lt;span style=&quot;color: #3b3b3b;&quot;&gt; &lt;/span&gt;&lt;span style=&quot;color: #001080;&quot;&gt;wrapperStyles&lt;/span&gt;&lt;span style=&quot;color: #001080;&quot;&gt;:&lt;/span&gt;&lt;span style=&quot;color: #3b3b3b;&quot;&gt; &lt;/span&gt;&lt;span style=&quot;color: #0070c1;&quot;&gt;filterWrapperStyles&lt;/span&gt;&lt;span style=&quot;color: #3b3b3b;&quot;&gt;,&lt;/span&gt;&lt;/div&gt;&lt;div&gt;&lt;span style=&quot;color: #3b3b3b;&quot;&gt;      &lt;/span&gt;&lt;span style=&quot;color: #001080;&quot;&gt;formItemLayout&lt;/span&gt;&lt;span style=&quot;color: #001080;&quot;&gt;:&lt;/span&gt;&lt;span style=&quot;color: #3b3b3b;&quot;&gt;&amp;nbsp;&lt;/span&gt;&lt;span style=&quot;color: rgb(0, 112, 193);&quot;&gt;filterFormItemLayout&lt;/span&gt;&lt;/div&gt;&lt;div&gt;&lt;span style=&quot;color: #3b3b3b;&quot;&gt;      &lt;/span&gt;&lt;span style=&quot;color: #001080;&quot;&gt;formStyles&lt;/span&gt;&lt;span style=&quot;color: #001080;&quot;&gt;:&lt;/span&gt;&lt;span style=&quot;color: #3b3b3b;&quot;&gt;&amp;nbsp;&lt;/span&gt;&lt;span style=&quot;color: rgb(0, 112, 193);&quot;&gt;filterFormStyles&lt;/span&gt;&lt;/div&gt;&lt;/div&gt;" style="text;whiteSpace=wrap;html=1;" vertex="1" parent="17">
                    <mxGeometry x="20" y="30" width="280" height="70" as="geometry"/>
                </mxCell>
                <mxCell id="21" value="" style="endArrow=classic;html=1;entryX=0;entryY=0.25;entryDx=0;entryDy=0;" edge="1" parent="1" target="17">
                    <mxGeometry width="50" height="50" relative="1" as="geometry">
                        <mxPoint x="640" y="160" as="sourcePoint"/>
                        <mxPoint x="730" y="360" as="targetPoint"/>
                    </mxGeometry>
                </mxCell>
                <mxCell id="25" value="" style="endArrow=classic;html=1;exitX=1;exitY=0.562;exitDx=0;exitDy=0;exitPerimeter=0;" edge="1" parent="1" source="4">
                    <mxGeometry width="50" height="50" relative="1" as="geometry">
                        <mxPoint x="320" y="380" as="sourcePoint"/>
                        <mxPoint x="380" y="350" as="targetPoint"/>
                    </mxGeometry>
                </mxCell>
            </root>
        </mxGraphModel>
    </diagram>
</mxfile>